<svg width="206" height="26" viewBox="0 0 206 26" fill="none" xmlns="http://www.w3.org/2000/svg">
<path d="M114.123 6.08773V20.0199H111.422V18.062C111.272 18.2295 111.108 18.3846 110.933 18.5259C109.707 19.5195 108.175 20.0581 106.597 20.0503C104.739 20.0503 102.957 19.3122 101.643 17.9983C100.329 16.6844 99.5912 14.9023 99.5912 13.0442C99.5912 11.186 100.329 9.40398 101.643 8.09007C102.957 6.77616 104.739 6.03802 106.597 6.03802C108.167 6.05171 109.69 6.5783 110.933 7.53757C111.096 7.7005 111.259 7.91866 111.422 8.08988V6.09601L114.123 6.08773ZM111.449 13.0994C111.449 10.614 109.05 8.60077 106.597 8.60077C105.412 8.60077 104.274 9.07182 103.436 9.9103C102.597 10.7488 102.126 11.886 102.126 13.0718C102.126 14.2576 102.597 15.3948 103.436 16.2333C104.274 17.0717 105.412 17.5428 106.597 17.5428C109.05 17.5428 111.449 15.6069 111.449 13.0994Z" fill="#05141A"/>
<path d="M6.37651 16.8414V6.87478V3.68515C6.37724 3.26582 6.29527 2.85045 6.1353 2.46283C5.97533 2.07521 5.7405 1.72294 5.44424 1.42617C5.14799 1.1294 4.79612 0.893954 4.40877 0.733315C4.02143 0.572675 3.60621 0.48999 3.18688 0.48999H0V16.8275C0.000729914 17.6728 0.336637 18.4832 0.934055 19.0812C1.53147 19.6791 2.34164 20.0157 3.18688 20.0172H7.94509C6.66648 19.4014 6.37651 18.6005 6.37651 16.8414Z" fill="#0089D0"/>
<path d="M13.2031 13.6517H7.95612V16.8358C7.95612 17.6806 8.2915 18.4908 8.88856 19.0883C9.48561 19.6859 10.2955 20.022 11.1402 20.0227H14.3271V14.7619C14.3279 14.6147 14.2992 14.4689 14.2428 14.3329C14.1864 14.197 14.1034 14.0737 13.9987 13.9703C13.894 13.8669 13.7697 13.7854 13.6331 13.7307C13.4965 13.676 13.3503 13.6491 13.2031 13.6517Z" fill="#0DB14B"/>
<path d="M70.9977 17.5096C70.2299 17.5101 69.4748 17.3145 68.8037 16.9415C68.1327 16.5684 67.568 16.0302 67.1632 15.3778C66.7584 14.7255 66.5268 13.9806 66.4904 13.2137C66.454 12.4468 66.614 11.6833 66.9553 10.9955C67.2965 10.3078 67.8077 9.71853 68.4404 9.28362C69.0731 8.84871 69.8064 8.58252 70.5708 8.51029C71.3351 8.43806 72.1053 8.56219 72.8082 8.87088C73.5112 9.17958 74.1237 9.66262 74.5877 10.2743L76.3773 8.48478C75.4506 7.38014 74.2065 6.58736 72.8138 6.21405C71.4212 5.84074 69.9473 5.90497 68.5924 6.39803C67.2375 6.89108 66.0671 7.78906 65.24 8.97013C64.413 10.1512 63.9694 11.5581 63.9694 13C63.9694 14.4418 64.413 15.8487 65.24 17.0298C66.0671 18.2109 67.2375 19.1089 68.5924 19.6019C69.9473 20.095 71.4212 20.1592 72.8138 19.7859C74.2065 19.4126 75.4506 18.6198 76.3773 17.5152L74.5905 15.7284C74.1699 16.2826 73.6266 16.7319 73.0033 17.0409C72.3799 17.35 71.6934 17.5104 70.9977 17.5096Z" fill="#05141A"/>
<path d="M31.7693 6.06008V19.9895H29.0685V18.0316C28.919 18.1998 28.7554 18.355 28.5797 18.4955C27.3541 19.4899 25.8222 20.0295 24.244 20.0227C23.312 20.0412 22.3858 19.8736 21.5194 19.5298C20.653 19.1859 19.8639 18.6727 19.1982 18.0201C18.5326 17.3676 18.0038 16.5888 17.6429 15.7294C17.2819 14.8701 17.0959 13.9473 17.0959 13.0151C17.0959 12.083 17.2819 11.1602 17.6429 10.3008C18.0038 9.44145 18.5326 8.66269 19.1982 8.01015C19.8639 7.3576 20.653 6.84439 21.5194 6.50054C22.3858 6.15669 23.312 5.9891 24.244 6.00761C25.8141 6.02129 27.3366 6.54788 28.5797 7.50715C28.7426 7.67008 28.9055 7.88825 29.0685 8.05946V6.06837L31.7693 6.06008ZM29.1016 13.069C29.1016 10.5836 26.7018 8.57037 24.2495 8.57037C23.0637 8.57037 21.9265 9.04142 21.088 9.8799C20.2495 10.7184 19.7785 11.8556 19.7785 13.0414C19.7785 14.2272 20.2495 15.3644 21.088 16.2029C21.9265 17.0413 23.0637 17.5124 24.2495 17.5124C26.6963 17.5124 29.1016 15.5765 29.1016 13.069Z" fill="#05141A"/>
<path d="M45.5359 6.01318H43.7381V13.9472C43.7381 16.1565 42.4705 17.4379 40.5567 17.4379C38.6429 17.4379 37.3781 16.1454 37.3781 13.9472V6.01318H35.5693H34.6801V13.8561C34.6801 17.2004 36.5938 20.0282 40.5457 20.0282C44.4975 20.0282 46.414 17.2004 46.414 13.8561V6.01318H45.5359Z" fill="#05141A"/>
<path d="M61.0642 12.1742C61.0642 8.82997 59.1477 6.00211 55.1958 6.00211C54.0857 5.97521 52.989 6.2501 52.0228 6.79744V6.01315H49.3247V12.0141C49.3247 12.0721 49.3247 12.1273 49.3247 12.1853V20.0282H50.2029H52.0228V12.0886C52.0228 12.0583 52.0228 12.0306 52.0228 12.003V11.8125C52.1305 9.791 53.3649 8.60905 55.1903 8.60905C57.1096 8.598 58.3744 9.87937 58.3744 12.0886V20.0227H60.1833H61.0615L61.0642 12.1742Z" fill="#05141A"/>
<path d="M91.0413 12.1743C91.0413 8.82999 89.1248 6.00213 85.1729 6.00213C84.0646 5.97582 82.9699 6.2507 82.0054 6.79747V0.48999H79.3046V14.3394V20.0089H80.191H81.9999V14.3476V11.8125C82.1048 9.79102 83.3392 8.6063 85.1674 8.6063C87.0812 8.6063 88.346 9.89873 88.346 12.097V20.031H90.1548H91.0358L91.0413 12.1743Z" fill="#05141A"/>
<path d="M192.226 17.4628C191.458 17.4632 190.703 17.2676 190.032 16.8946C189.361 16.5215 188.796 15.9833 188.391 15.3309C187.987 14.6786 187.755 13.9337 187.719 13.1668C187.682 12.3999 187.842 11.6364 188.184 10.9486C188.525 10.2609 189.036 9.67164 189.669 9.23672C190.301 8.80181 191.035 8.53563 191.799 8.4634C192.563 8.39117 193.333 8.51527 194.036 8.82397C194.739 9.13266 195.352 9.61573 195.816 10.2274L197.605 8.43512C196.679 7.32959 195.434 6.53602 194.041 6.16216C192.648 5.78831 191.173 5.85228 189.817 6.34537C188.461 6.83846 187.29 7.73679 186.463 8.91841C185.635 10.1 185.191 11.5077 185.191 12.9503C185.191 14.3929 185.635 15.8006 186.463 16.9822C187.29 18.1638 188.461 19.0622 189.817 19.5552C191.173 20.0483 192.648 20.1123 194.041 19.7384C195.434 19.3646 196.679 18.571 197.605 17.4655L195.813 15.6788C195.393 16.2327 194.851 16.6821 194.229 16.9916C193.606 17.3011 192.921 17.4623 192.226 17.4628Z" fill="#05141A"/>
<path d="M146.657 5.94415V6.32525C145.828 7.11223 145.156 8.04933 144.677 9.08684C143.954 9.55924 143.425 10.2742 143.183 11.1028C143.098 11.4187 143.058 11.745 143.064 12.0721V19.9371H140.131V5.93311H143.064V7.09849C144.111 6.34603 145.368 5.94216 146.657 5.94415Z" fill="#05141A"/>
<path d="M159.937 12.931C159.929 14.7966 159.183 16.583 157.861 17.8996C156.539 19.2162 154.75 19.9557 152.884 19.9565C151.5 19.9483 150.149 19.5305 149.002 18.7557C147.854 17.9809 146.962 16.8838 146.437 15.6026C145.913 14.3215 145.779 12.9137 146.053 11.5567C146.327 10.1997 146.997 8.9542 147.977 7.97719C148.958 7.00018 150.206 6.33539 151.565 6.06663C152.923 5.79786 154.33 5.93715 155.609 6.46693C156.888 6.99671 157.982 7.89326 158.752 9.0436C159.522 10.1939 159.935 11.5466 159.937 12.931ZM157.353 12.931C157.353 10.3461 155.497 8.35502 152.884 8.35502C150.327 8.35502 148.391 10.3461 148.391 12.931C148.391 15.5158 150.324 17.5318 152.884 17.5318C155.497 17.5318 157.353 15.5407 157.353 12.931Z" fill="#05141A"/>
<path d="M182.094 15.2092C180.79 18.3823 178.134 19.9564 175.366 19.9564C173.975 19.9778 172.608 19.5845 171.441 18.8265C170.273 18.0686 169.358 16.9803 168.811 15.7003C168.264 14.4203 168.111 13.0065 168.37 11.639C168.629 10.2714 169.29 9.01203 170.267 8.02117C171.245 7.03032 172.495 6.35283 173.859 6.075C175.223 5.79717 176.639 5.93156 177.926 6.46107C179.213 6.99058 180.314 7.89124 181.088 9.04834C181.861 10.2054 182.273 11.5666 182.27 12.9586C182.275 13.212 182.266 13.4656 182.243 13.718H171.075C171.231 14.7456 171.748 15.6838 172.534 16.3645C173.319 17.0452 174.322 17.4238 175.361 17.4323C177.043 17.4323 178.506 16.6038 179.211 15.2092H182.094ZM171.161 11.6827H179.597C179.514 11.4645 179.379 11.2491 179.299 11.031C178.964 10.2465 178.402 9.57966 177.686 9.11571C176.97 8.65177 176.133 8.41174 175.28 8.42626C174.427 8.44078 173.597 8.70921 172.897 9.19726C172.198 9.68531 171.659 10.3708 171.351 11.1663C171.267 11.3308 171.201 11.504 171.155 11.6827H171.161Z" fill="#05141A"/>
<path d="M160.203 22.7981C161.705 22.7981 162.851 21.8868 162.851 19.7079V5.93311H165.524V19.7079C165.524 22.1768 164.5 25.4631 160.197 25.4631L160.203 22.7981Z" fill="#05141A"/>
<path d="M162.807 1.8708C162.807 1.50972 162.95 1.16343 163.205 0.908103C163.461 0.65278 163.807 0.509338 164.168 0.509338C164.529 0.509338 164.876 0.65278 165.131 0.908103C165.386 1.16343 165.53 1.50972 165.53 1.8708C165.53 2.23188 165.386 2.57817 165.131 2.8335C164.876 3.08882 164.529 3.23226 164.168 3.23226C163.807 3.23226 163.461 3.08882 163.205 2.8335C162.95 2.57817 162.807 2.23188 162.807 1.8708Z" fill="#05141A"/>
<path d="M130.201 5.93306C128.563 5.93019 126.976 6.50409 125.719 7.55411V5.98H122.905V25.51H125.719V18.3574C126.586 19.0774 127.614 19.5779 128.716 19.8166C129.818 20.0552 130.961 20.0251 132.049 19.7287C133.137 19.4324 134.137 18.8784 134.966 18.1138C135.795 17.3491 136.427 16.3962 136.809 15.3356C137.192 14.2751 137.313 13.138 137.164 12.0205C137.014 10.903 136.597 9.83805 135.949 8.91556C135.301 7.99306 134.44 7.24019 133.44 6.72058C132.439 6.20097 131.328 5.92991 130.201 5.9303V5.93306ZM130.201 17.3992C129.322 17.3986 128.463 17.1376 127.733 16.6492C127.003 16.1607 126.434 15.4667 126.098 14.6549C125.762 13.8431 125.674 12.9499 125.846 12.0882C126.017 11.2266 126.44 10.4351 127.061 9.81382C127.683 9.19256 128.474 8.76944 129.336 8.5979C130.198 8.42636 131.091 8.51412 131.903 8.85009C132.714 9.18606 133.408 9.75515 133.897 10.4854C134.385 11.2157 134.646 12.0744 134.647 12.953C134.647 13.537 134.532 14.1153 134.309 14.6549C134.086 15.1945 133.758 15.6848 133.345 16.0977C132.932 16.5107 132.442 16.8382 131.903 17.0615C131.363 17.2848 130.785 17.3995 130.201 17.3992Z" fill="#05141A"/>
<path d="M205.672 7.67013V5.59893H203.01V0.523132H201.049C201.049 5.64588 197.804 5.9828 197.804 5.9828V6.84165C198.078 7.09399 198.335 7.36332 198.575 7.64803H200.508V15.1043C200.508 18.479 202.637 19.9979 205.407 19.9979H205.683V17.5124H205.556C204.07 17.5124 203.021 16.9076 203.021 15.1016V7.67013H205.672Z" fill="#05141A"/>
</svg>
