<svg width="256" height="32" viewBox="0 0 256 32" fill="none" xmlns="http://www.w3.org/2000/svg">
<path d="M142.041 7.43564V24.6978H138.679V22.2718C138.492 22.4794 138.289 22.6716 138.071 22.8467C136.545 24.0777 134.638 24.7451 132.675 24.7354C130.362 24.7354 128.144 23.8208 126.509 22.1929C124.873 20.565 123.954 18.357 123.954 16.0547C123.954 13.7525 124.873 11.5445 126.509 9.91656C128.144 8.28861 130.362 7.37405 132.675 7.37405C134.629 7.39101 136.524 8.04346 138.071 9.232C138.274 9.43388 138.476 9.70418 138.679 9.91633V7.44589L142.041 7.43564ZM138.714 16.1232C138.714 13.0437 135.727 10.5493 132.675 10.5493C131.199 10.5493 129.783 11.133 128.74 12.1718C127.696 13.2107 127.11 14.6197 127.11 16.0889C127.11 17.5581 127.696 18.9672 128.74 20.0061C129.783 21.0449 131.199 21.6286 132.675 21.6286C135.727 21.6286 138.714 19.23 138.714 16.1232Z" fill="#FCFCFD"/>
<path d="M7.93642 20.7595V8.41082V4.45883C7.93732 3.93928 7.8353 3.42463 7.6362 2.94437C7.4371 2.4641 7.14482 2.02764 6.77609 1.65994C6.40735 1.29224 5.96941 1.00052 5.48731 0.801481C5.0052 0.602448 4.48841 0.499999 3.96649 0.5H0V20.7424C0.000908475 21.7896 0.41899 22.7938 1.16256 23.5347C1.90612 24.2755 2.91448 24.6926 3.96649 24.6944H9.88872C8.29732 23.9314 7.93642 22.9391 7.93642 20.7595Z" fill="#0089D0"/>
<path d="M16.4331 16.8075H9.90247V20.7526C9.90247 21.7993 10.3199 22.8031 11.063 23.5435C11.8061 24.2839 12.8141 24.7003 13.8655 24.7012H17.832V18.183C17.833 18.0007 17.7973 17.82 17.7271 17.6515C17.6569 17.4831 17.5536 17.3303 17.4233 17.2022C17.293 17.0741 17.1383 16.9731 16.9682 16.9054C16.7982 16.8376 16.6162 16.8043 16.4331 16.8075Z" fill="#0DB14B"/>
<path d="M88.366 21.5875C87.4104 21.5881 86.4705 21.3458 85.6354 20.8836C84.8002 20.4213 84.0974 19.7545 83.5935 18.9462C83.0896 18.1379 82.8014 17.215 82.7561 16.2648C82.7108 15.3146 82.91 14.3686 83.3347 13.5165C83.7595 12.6644 84.3957 11.9343 85.1832 11.3954C85.9707 10.8566 86.8833 10.5268 87.8347 10.4373C88.786 10.3478 89.7445 10.5016 90.6195 10.884C91.4944 11.2665 92.2568 11.865 92.8343 12.6229L95.0616 10.4056C93.9083 9.03699 92.3598 8.05474 90.6265 7.5922C88.8931 7.12966 87.0587 7.20925 85.3724 7.82015C83.686 8.43104 82.2292 9.54366 81.1999 11.007C80.1705 12.4704 79.6183 14.2136 79.6183 16C79.6183 17.7865 80.1705 19.5297 81.1999 20.993C82.2292 22.4564 83.686 23.569 85.3724 24.1799C87.0587 24.7908 88.8931 24.8704 90.6265 24.4078C92.3598 23.9453 93.9083 22.9631 95.0616 21.5944L92.8378 19.3806C92.3143 20.0673 91.6381 20.6239 90.8622 21.0068C90.0864 21.3897 89.232 21.5885 88.366 21.5875Z" fill="#FCFCFD"/>
<path d="M39.5411 7.40141V24.6601H36.1796V22.2342C35.9935 22.4426 35.79 22.6349 35.5712 22.809C34.0458 24.041 32.1392 24.7096 30.1749 24.7012C29.0149 24.7241 27.8621 24.5165 26.7837 24.0905C25.7054 23.6644 24.7232 23.0285 23.8948 22.22C23.0663 21.4115 22.4082 20.4466 21.9589 19.3818C21.5096 18.317 21.2782 17.1737 21.2782 16.0188C21.2782 14.8639 21.5096 13.7206 21.9589 12.6558C22.4082 11.591 23.0663 10.6261 23.8948 9.81756C24.7232 9.00906 25.7054 8.37318 26.7837 7.94715C27.8621 7.52111 29.0149 7.31347 30.1749 7.3364C32.129 7.35335 34.0241 8.00581 35.5712 9.19434C35.774 9.39622 35.9768 9.66653 36.1796 9.87867V7.41168L39.5411 7.40141ZM36.2208 16.0855C36.2208 13.006 33.2339 10.5117 30.1817 10.5117C28.7059 10.5117 27.2905 11.0953 26.2469 12.1342C25.2033 13.1731 24.617 14.5821 24.617 16.0513C24.617 17.5205 25.2033 18.9295 26.2469 19.9684C27.2905 21.0073 28.7059 21.5909 30.1817 21.5909C33.2271 21.5909 36.2208 19.1924 36.2208 16.0855Z" fill="#FCFCFD"/>
<path d="M56.6754 7.34329H54.4378V17.1736C54.4378 19.9109 52.8602 21.4986 50.4782 21.4986C48.0963 21.4986 46.522 19.8973 46.522 17.1736V7.34329H44.2707H43.1639V17.0607C43.1639 21.2043 45.5459 24.7081 50.4645 24.7081C55.3831 24.7081 57.7684 21.2043 57.7684 17.0607V7.34329H56.6754Z" fill="#FCFCFD"/>
<path d="M76.0026 14.9769C76.0026 10.8333 73.6172 7.32956 68.6986 7.32956C67.3169 7.29624 65.9519 7.63682 64.7493 8.31499V7.34324H61.3912V14.7784C61.3912 14.8503 61.3912 14.9187 61.3912 14.9906V24.708H62.4842H64.7493V14.8708C64.7493 14.8332 64.7493 14.799 64.7493 14.7648V14.5287C64.8834 12.024 66.4198 10.5596 68.6917 10.5596C71.0806 10.5459 72.6548 12.1335 72.6548 14.8708V24.7012H74.9061H75.9992L76.0026 14.9769Z" fill="#FCFCFD"/>
<path d="M113.313 14.9769C113.313 10.8333 110.928 7.32959 106.009 7.32959C104.63 7.297 103.267 7.63757 102.067 8.31502V0.5H98.705V17.6595V24.6841H99.8083H102.06V17.6698V14.5287C102.19 12.0241 103.727 10.5562 106.002 10.5562C108.384 10.5562 109.958 12.1575 109.958 14.8811V24.7115H112.21H113.306L113.313 14.9769Z" fill="#FCFCFD"/>
<path d="M239.251 21.5294C238.295 21.5299 237.355 21.2876 236.52 20.8254C235.685 20.3632 234.982 19.6963 234.478 18.888C233.974 18.0798 233.686 17.1568 233.641 16.2066C233.596 15.2564 233.795 14.3104 234.219 13.4583C234.644 12.6062 235.28 11.8761 236.068 11.3372C236.855 10.7984 237.768 10.4686 238.719 10.3791C239.671 10.2896 240.629 10.4434 241.504 10.8258C242.379 11.2083 243.141 11.8068 243.719 12.5647L245.946 10.344C244.793 8.97429 243.244 7.99105 241.51 7.52784C239.775 7.06463 237.94 7.14389 236.253 7.75483C234.565 8.36577 233.108 9.47882 232.078 10.9429C231.048 12.4069 230.495 14.151 230.495 15.9384C230.495 17.7258 231.048 19.4699 232.078 20.934C233.108 22.398 234.565 23.511 236.253 24.122C237.94 24.7329 239.775 24.8122 241.51 24.349C243.244 23.8858 244.793 22.9025 245.946 21.5328L243.716 19.319C243.193 20.0054 242.518 20.5621 241.744 20.9456C240.969 21.329 240.116 21.5289 239.251 21.5294Z" fill="#FCFCFD"/>
<path d="M182.534 7.25773V7.72992C181.503 8.70499 180.666 9.86608 180.07 11.1515C179.171 11.7369 178.511 12.6227 178.21 13.6493C178.104 14.0408 178.055 14.4451 178.062 14.8503V24.5951H174.412V7.24405H178.062V8.68797C179.365 7.75567 180.93 7.25527 182.534 7.25773Z" fill="#FCFCFD"/>
<path d="M199.063 15.9145C199.053 18.2259 198.124 20.4394 196.479 22.0707C194.834 23.7019 192.607 24.6182 190.285 24.6191C188.562 24.609 186.88 24.0913 185.452 23.1313C184.024 22.1713 182.914 20.812 182.261 19.2247C181.608 17.6374 181.441 15.8931 181.782 14.2118C182.123 12.5304 182.957 10.9872 184.178 9.77669C185.398 8.56616 186.952 7.74249 188.642 7.40949C190.333 7.07649 192.084 7.24906 193.676 7.90546C195.268 8.56186 196.629 9.6727 197.588 11.098C198.547 12.5233 199.06 14.1992 199.063 15.9145ZM195.846 15.9145C195.846 12.7118 193.536 10.2448 190.285 10.2448C187.102 10.2448 184.693 12.7118 184.693 15.9145C184.693 19.1171 187.099 21.6149 190.285 21.6149C193.536 21.6149 195.846 19.1479 195.846 15.9145Z" fill="#FCFCFD"/>
<path d="M226.64 18.7373C225.017 22.6688 221.711 24.6191 218.267 24.6191C216.535 24.6456 214.834 24.1583 213.381 23.2192C211.928 22.28 210.788 20.9316 210.108 19.3457C209.427 17.7598 209.236 16.0081 209.559 14.3137C209.882 12.6193 210.704 11.0589 211.92 9.83124C213.137 8.60356 214.693 7.76415 216.391 7.41991C218.088 7.07568 219.85 7.24219 221.453 7.89826C223.055 8.55433 224.425 9.67025 225.388 11.1039C226.35 12.5376 226.863 14.2241 226.86 15.9487C226.866 16.2627 226.855 16.5769 226.825 16.8897H212.925C213.12 18.1628 213.764 19.3253 214.741 20.1687C215.719 21.0121 216.966 21.4811 218.26 21.4917C220.353 21.4917 222.175 20.4653 223.051 18.7373H226.64ZM213.032 14.3679H223.533C223.429 14.0976 223.261 13.8307 223.161 13.5604C222.744 12.5884 222.045 11.7622 221.154 11.1874C220.263 10.6126 219.22 10.3152 218.159 10.3331C217.097 10.3511 216.065 10.6837 215.194 11.2884C214.323 11.8931 213.653 12.7425 213.269 13.728C213.165 13.9319 213.083 14.1464 213.025 14.3679H213.032Z" fill="#FCFCFD"/>
<path d="M199.393 28.14C201.263 28.14 202.69 27.0108 202.69 24.3112V7.24405H206.017V24.3112C206.017 27.3701 204.742 31.4418 199.386 31.4418L199.393 28.14Z" fill="#FCFCFD"/>
<path d="M202.635 2.21079C202.635 1.7634 202.813 1.33435 203.131 1.018C203.449 0.701651 203.88 0.523926 204.329 0.523926C204.779 0.523926 205.21 0.701651 205.527 1.018C205.845 1.33435 206.024 1.7634 206.024 2.21079C206.024 2.65817 205.845 3.08723 205.527 3.40358C205.21 3.71993 204.779 3.89765 204.329 3.89765C203.88 3.89765 203.449 3.71993 203.131 3.40358C202.813 3.08723 202.635 2.65817 202.635 2.21079Z" fill="#FCFCFD"/>
<path d="M162.052 7.24406C160.013 7.2405 158.038 7.95156 156.473 9.25255V7.30222H152.971V31.5H156.473V22.638C157.553 23.53 158.833 24.1501 160.205 24.4458C161.576 24.7416 162.999 24.7042 164.353 24.337C165.707 23.9698 166.952 23.2835 167.983 22.3361C169.014 21.3887 169.801 20.208 170.277 18.8939C170.753 17.5799 170.905 16.171 170.718 14.7865C170.532 13.4019 170.014 12.0824 169.207 10.9394C168.4 9.79642 167.329 8.8636 166.083 8.2198C164.838 7.576 163.455 7.24015 162.052 7.24063V7.24406ZM162.052 21.4507C160.958 21.45 159.89 21.1266 158.981 20.5214C158.072 19.9162 157.364 19.0564 156.945 18.0505C156.527 17.0447 156.418 15.938 156.631 14.8704C156.845 13.8027 157.372 12.8221 158.145 12.0523C158.918 11.2826 159.903 10.7584 160.976 10.5458C162.048 10.3333 163.16 10.442 164.17 10.8583C165.181 11.2745 166.044 11.9797 166.652 12.8845C167.26 13.7893 167.585 14.8533 167.586 15.9418C167.586 16.6654 167.443 17.382 167.166 18.0505C166.888 18.7191 166.48 19.3265 165.966 19.8382C165.452 20.3498 164.842 20.7556 164.17 21.0323C163.499 21.3089 162.779 21.4511 162.052 21.4507Z" fill="#FCFCFD"/>
<path d="M255.986 9.39624V6.83001H252.673V0.541046H250.232C250.232 6.88818 246.194 7.30562 246.194 7.30562V8.36975C246.534 8.6824 246.854 9.0161 247.153 9.36886H249.559V18.6073C249.559 22.7885 252.209 24.6704 255.656 24.6704H256V21.5909H255.842C253.993 21.5909 252.687 20.8416 252.687 18.6038V9.39624H255.986Z" fill="#FCFCFD"/>
</svg>
