<svg width="517" height="100" viewBox="0 0 517 100" fill="none" xmlns="http://www.w3.org/2000/svg">
<g clip-path="url(#clip0_194_464)">
<path d="M77.513 100V84.589H68.1816V81.1198H90.3135V84.589H80.9936V100H77.513Z" fill="#282829"/>
<path d="M109.4 100C105.931 100 103.114 97.1834 103.114 93.7142V87.4055C103.114 83.9363 105.931 81.1198 109.4 81.1198H123.655V84.6004H108.999C107.671 84.6004 106.583 85.6767 106.583 87.0162V88.8367H121.64V92.3174H106.583V94.1378C106.583 95.466 107.66 96.5537 108.999 96.5537H123.655V100.034H109.4V100Z" fill="#282829"/>
<path d="M143.554 100C139.638 100 136.455 96.817 136.455 92.9013V88.207C136.455 84.2913 139.638 81.1083 143.554 81.1083H157.534V84.5775H143.886C141.71 84.5775 139.936 86.3522 139.936 88.5276V92.5693C139.936 94.7447 141.71 96.5194 143.886 96.5194H157.534V99.9886H143.554V100Z" fill="#282829"/>
<path d="M188.459 100V92.2945H173.815V100H170.334V81.1198H173.815V88.8138H188.459V81.1198H191.939V100H188.459Z" fill="#282829"/>
<path d="M222.659 100L208.209 85.7797V100H204.74V81.1198H208.427L222.865 95.3286V81.1198H226.334V100H222.659Z" fill="#282829"/>
<path d="M246.233 100C242.318 100 239.135 96.817 239.135 92.9013V88.207C239.135 84.2913 242.318 81.1083 246.233 81.1083H254.443C258.358 81.1083 261.541 84.2913 261.541 88.207V92.9013C261.541 96.817 258.358 100 254.443 100H246.233ZM246.417 84.589C244.321 84.589 242.604 86.2949 242.604 88.4016V92.7181C242.604 94.8134 244.31 96.5308 246.417 96.5308H254.248C256.343 96.5308 258.049 94.8248 258.049 92.7296V88.4016C258.049 86.3064 256.343 84.6004 254.248 84.6004H246.417V84.589Z" fill="#282829"/>
<path d="M275.464 94.2065V81.1198H278.945V94.1264C278.945 95.4545 280.021 96.5308 281.349 96.5308H294.001V100.011H281.257C278.063 100.011 275.464 97.4124 275.464 94.218V94.2065Z" fill="#282829"/>
<path d="M313.888 100C309.972 100 306.789 96.817 306.789 92.9013V88.207C306.789 84.2913 309.972 81.1083 313.888 81.1083H322.097C326.013 81.1083 329.196 84.2913 329.196 88.207V92.9013C329.196 96.817 326.013 100 322.097 100H313.888ZM314.105 84.589C311.987 84.589 310.258 86.3178 310.258 88.436V92.6838C310.258 94.8019 311.987 96.5308 314.105 96.5308H321.868C323.986 96.5308 325.715 94.8019 325.715 92.6838V88.436C325.715 86.3178 323.986 84.589 321.868 84.589H314.105Z" fill="#282829"/>
<path d="M349.073 100C345.158 100 341.975 96.817 341.975 92.9013V88.207C341.975 84.2913 345.158 81.1083 349.073 81.1083H364.107V84.589H349.268C347.161 84.589 345.444 86.3064 345.444 88.4131V92.7067C345.444 94.8134 347.161 96.5308 349.268 96.5308H358.519C359.687 96.5308 360.637 95.5805 360.637 94.4126C360.637 93.2448 359.687 92.2945 358.519 92.2945H349.68V88.8253H358.519C361.599 88.8253 364.107 91.3327 364.107 94.4126C364.107 97.4926 361.599 100 358.519 100H349.073Z" fill="#282829"/>
<path d="M380.375 81.1198H376.895V100H380.375V81.1198Z" fill="#282829"/>
<path d="M398.522 100C395.568 100 393.164 97.5956 393.164 94.6416V86.4781C393.164 83.5241 395.568 81.1198 398.522 81.1198H413.704V84.6004H398.545C397.492 84.6004 396.633 85.4591 396.633 86.5125V88.8253H411.689V92.3059H396.633V94.6187C396.633 95.6721 397.492 96.5308 398.545 96.5308H413.704V100.011H398.522V100Z" fill="#282829"/>
<path d="M427.044 100V96.5193H442.616C443.738 96.5193 444.642 95.6148 444.642 94.4928V94.321C444.642 93.199 443.738 92.2945 442.616 92.2945H431.281C428.647 92.2945 426.518 90.1534 426.518 87.5315V85.8828C426.518 83.2608 428.659 81.1198 431.281 81.1198H447.585V84.589H432.013C430.891 84.589 429.987 85.4935 429.987 86.6155V86.7873C429.987 87.9093 430.891 88.8138 432.013 88.8138H443.348C445.982 88.8138 448.111 90.9549 448.111 93.5768V95.2255C448.111 97.8589 445.97 99.9885 443.348 99.9885H427.044V100Z" fill="#282829"/>
<path d="M57.9345 0.686966C77.7994 0.686966 84.1997 7.08724 84.1997 23.0937V58.8505C84.1997 60.5107 83.4326 61.2778 81.7724 61.2778H70.9526C69.2924 61.2778 68.5253 60.5107 68.5253 58.8505V26.8491C68.5253 17.575 66.6476 14.7126 57.1559 14.7126H27.7994C18.3078 14.7126 15.766 17.5864 15.766 26.8491V58.8505C15.766 60.5107 14.9989 61.2778 13.3387 61.2778H2.54179C0.881612 61.2778 0 60.5107 0 58.8505V23.0937C0 7.09869 6.40028 0.686966 26.2652 0.686966H57.9345Z" fill="#282829"/>
<path d="M490.039 0.686966C509.904 0.686966 516.305 7.08724 516.305 23.0937V58.8505C516.305 60.5107 515.538 61.2778 513.877 61.2778H503.058C501.397 61.2778 500.63 60.5107 500.63 58.8505V26.8491C500.63 17.575 498.753 14.7126 489.261 14.7126H459.904C450.413 14.7126 447.871 17.5864 447.871 26.8491V58.8505C447.871 60.5107 447.104 61.2778 445.444 61.2778H434.624C432.964 61.2778 432.082 60.5107 432.082 58.8505V23.0937C432.082 7.09869 438.482 0.686966 458.347 0.686966H490.017H490.039Z" fill="#282829"/>
<path d="M227.639 0.057251C247.71 0.057251 254.179 6.52622 254.179 22.6929V38.7451C254.179 54.9118 247.71 61.2663 227.639 61.2663H196.084C176.013 61.2663 169.544 54.9118 169.544 38.7451V22.6929C169.544 6.52622 176.013 0.057251 196.084 0.057251H227.639ZM185.493 35.9629C185.493 45.3286 188.058 48.2253 197.652 48.2253H226.082C235.779 48.2253 238.344 45.3286 238.344 35.9629V25.3721C238.344 16.0064 235.779 13.2242 226.082 13.2242H197.652C188.058 13.2242 185.493 16.0064 185.493 25.3721V35.9629Z" fill="#282829"/>
<path d="M330.582 0C331.887 0 332.506 0.606824 332.506 1.92352V10.4763C332.506 11.7815 331.899 12.48 330.582 12.48H291.757C282.769 12.48 280.147 15.1019 280.147 24.3417V36.73C280.147 45.9812 282.769 48.6833 291.757 48.6833H330.582C331.887 48.6833 332.506 49.2901 332.506 50.6068V59.1596C332.506 60.4649 331.899 61.0831 330.582 61.0831H291.23C273.609 61.0831 266.797 54.7973 266.797 38.0467V23.0364C266.797 6.28578 273.598 0 291.23 0L330.582 0Z" fill="#282829"/>
<path d="M393.68 0C411.392 0 418.113 6.28578 418.113 23.0364V38.0467C418.113 54.7973 411.392 61.0831 393.68 61.0831H366.716C349.096 61.0831 342.283 54.7973 342.283 38.0467V23.0364C342.283 6.28578 349.084 0 366.716 0L393.68 0ZM355.633 37.085C355.633 46.2446 358.255 48.9466 367.243 48.9466H393.153C402.141 48.9466 404.763 46.2446 404.763 37.085V23.9982C404.763 14.8386 402.141 12.1365 393.153 12.1365H367.243C358.255 12.1365 355.633 14.8386 355.633 23.9982V37.085Z" fill="#282829"/>
<path d="M154.615 50.2863H100.951C97.9344 50.2863 95.4893 52.7314 95.4893 55.7477C95.4893 58.7639 97.9344 61.2091 100.951 61.2091H154.615C157.631 61.2091 160.076 58.7639 160.076 55.7477C160.076 52.7314 157.631 50.2863 154.615 50.2863Z" fill="#FE3B00"/>
<path d="M154.615 1.05333H100.951C97.9344 1.05333 95.4893 3.49849 95.4893 6.51475C95.4893 9.531 97.9344 11.9762 100.951 11.9762H154.615C157.631 11.9762 160.076 9.531 160.076 6.51475C160.076 3.49849 157.631 1.05333 154.615 1.05333Z" fill="#FE3B00"/>
<path d="M135.505 25.521H100.951C97.9344 25.521 95.4893 27.9661 95.4893 30.9824C95.4893 33.9986 97.9344 36.4438 100.951 36.4438H135.505C138.522 36.4438 140.967 33.9986 140.967 30.9824C140.967 27.9661 138.522 25.521 135.505 25.521Z" fill="#FE3B00"/>
<path d="M53.4234 88.2757H2.2899C1.02522 88.2757 0 89.2984 0 90.5599C0 91.8214 1.02522 92.844 2.2899 92.844H53.4234C54.6881 92.844 55.7133 91.8214 55.7133 90.5599C55.7133 89.2984 54.6881 88.2757 53.4234 88.2757Z" fill="#282829"/>
<path d="M514.015 88.2757H462.984C461.72 88.2757 460.694 89.2984 460.694 90.5599C460.694 91.8214 461.72 92.844 462.984 92.844H514.015C515.279 92.844 516.305 91.8214 516.305 90.5599C516.305 89.2984 515.279 88.2757 514.015 88.2757Z" fill="#282829"/>
</g>
<defs>
<clipPath id="clip0_194_464">
<rect width="516.304" height="100" fill="white"/>
</clipPath>
</defs>
</svg>
